<svg xmlns="http://www.w3.org/2000/svg" width="1200" height="420" viewBox="0 0 1200 420" role="img" aria-labelledby="psrpg-title psrpg-desc">
<title id="psrpg-title">Middle-earth Journey for Fulforce</title>
<desc id="psrpg-desc">Middle-earth journey for Fulforce. Currently at Bree; next destination Weathertop. 4,385 of 50,000 XP, 8.8 percent complete. Journey started 2026-01-01; last successful update 2026-07-16. 3 achievements unlocked. Activity data is incomplete. GitHub does not expose complete public release-author totals for a user.</desc>
<rect width="1200" height="420" rx="16" fill="#F7F0D8"/>
<rect x="1" y="1" width="1198" height="418" rx="15" fill="none" stroke="#6B5B45" stroke-opacity="0.35"/>
<g font-family="DejaVu Sans, sans-serif">
<text x="40" y="36" fill="#6B5B45" font-size="12" font-weight="700" letter-spacing="1.2">MIDDLE-EARTH JOURNEY</text>
<text x="40" y="70" fill="#242018" font-size="26" font-weight="700">Fulforce</text>
<text x="40" y="94" fill="#6B5B45" font-size="15">Wanderer</text>
<text x="1160" y="38" text-anchor="end" fill="#2F6F4E" font-size="13" font-weight="700">Journey active</text>
<text x="1160" y="65" text-anchor="end" fill="#6B5B45" font-size="12">Started 2026-01-01</text>
<text x="1160" y="85" text-anchor="end" fill="#6B5B45" font-size="12">Updated 2026-07-16</text>
<g transform="translate(40 112)">
<rect x="0" y="0" width="330" height="106" rx="9" fill="#242018" opacity="0.055" stroke="#6B5B45" stroke-width="1" stroke-opacity="0.3"/>
<text x="18" y="25" fill="#6B5B45" font-size="12" font-weight="700">TOP XP SOURCES</text>
<text x="18" y="47" fill="#242018" font-size="11" font-weight="700">PRs merged</text>
<text x="190" y="47" text-anchor="end" fill="#6B5B45" font-size="11">20</text>
<text x="312" y="47" text-anchor="end" fill="#2F6F4E" font-size="11" font-weight="800">+800 XP</text>
<text x="18" y="65" fill="#242018" font-size="11" font-weight="700">PRs opened</text>
<text x="190" y="65" text-anchor="end" fill="#6B5B45" font-size="11">20</text>
<text x="312" y="65" text-anchor="end" fill="#2F6F4E" font-size="11" font-weight="800">+400 XP</text>
<text x="18" y="83" fill="#242018" font-size="11" font-weight="700">Repositories</text>
<text x="190" y="83" text-anchor="end" fill="#6B5B45" font-size="11">2</text>
<text x="312" y="83" text-anchor="end" fill="#2F6F4E" font-size="11" font-weight="800">+200 XP</text>
<text x="18" y="101" fill="#242018" font-size="11" font-weight="700">Commits</text>
<text x="190" y="101" text-anchor="end" fill="#6B5B45" font-size="11">77</text>
<text x="312" y="101" text-anchor="end" fill="#2F6F4E" font-size="11" font-weight="800">+154 XP</text>
</g>
<g transform="translate(390 112)">
<rect x="0" y="0" width="770" height="106" rx="9" fill="#242018" opacity="0.055" stroke="#6B5B45" stroke-width="1" stroke-opacity="0.3"/>
<text x="22" y="27" fill="#6B5B45" font-size="12" font-weight="700">PROGRESS</text>
<text x="22" y="57" fill="#242018" font-size="22" font-weight="700">4,385 / 50,000 XP</text>
<text x="742" y="57" text-anchor="end" fill="#2F6F4E" font-size="24" font-weight="800">8.8%</text>
<rect x="22" y="75" width="720" height="9" rx="4.5" fill="#6B5B45" opacity="0.2"/>
<rect x="22" y="75" width="63" height="9" rx="4.5" fill="#2F6F4E"/>
</g>
<g transform="translate(40 236)">
<text x="0" y="0" fill="#6B5B45" font-size="12" font-weight="700">CURRENT LOCATION</text>
<text x="0" y="26" fill="#242018" font-size="18" font-weight="700">Bree</text>
<text x="390" y="0" fill="#6B5B45" font-size="12" font-weight="700">NEXT DESTINATION</text>
<text x="390" y="26" fill="#242018" font-size="18" font-weight="700">Weathertop</text>
<text x="1120" y="18" text-anchor="end" fill="#6B5B45" font-size="13"><tspan fill="#242018" font-weight="800">3</tspan> achievements</text>
</g>
<g data-region="journey-map">
<line x1="55" y1="326" x2="1145" y2="326" stroke="#6B5B45" stroke-width="5" stroke-linecap="round" opacity="0.35" stroke-dasharray="8 7"/>
<line x1="55" y1="326" x2="203" y2="326" stroke="#2F6F4E" stroke-width="7" stroke-linecap="round"/>
<circle cx="55" cy="326" r="6" fill="#2F6F4E" stroke="#F7F0D8" stroke-width="2"/><path d="M 52 326 l 2 2 l 4 -5" fill="none" stroke="#F7F0D8" stroke-width="1.5" stroke-linecap="round" stroke-linejoin="round"/>
<circle cx="137" cy="326" r="6" fill="#2F6F4E" stroke="#F7F0D8" stroke-width="2"/><path d="M 134 326 l 2 2 l 4 -5" fill="none" stroke="#F7F0D8" stroke-width="1.5" stroke-linecap="round" stroke-linejoin="round"/>
<circle cx="225" cy="326" r="6" fill="#F7F0D8" stroke="#6B5B45" stroke-width="2"/>
<circle cx="322" cy="326" r="6" fill="#F7F0D8" stroke="#6B5B45" stroke-width="2"/>
<circle cx="420" cy="326" r="6" fill="#F7F0D8" stroke="#6B5B45" stroke-width="2"/>
<circle cx="507" cy="326" r="6" fill="#F7F0D8" stroke="#6B5B45" stroke-width="2"/>
<circle cx="585" cy="326" r="6" fill="#F7F0D8" stroke="#6B5B45" stroke-width="2"/>
<circle cx="667" cy="326" r="6" fill="#F7F0D8" stroke="#6B5B45" stroke-width="2"/>
<circle cx="749" cy="326" r="6" fill="#F7F0D8" stroke="#6B5B45" stroke-width="2"/>
<circle cx="826" cy="326" r="6" fill="#F7F0D8" stroke="#6B5B45" stroke-width="2"/>
<circle cx="903" cy="326" r="6" fill="#F7F0D8" stroke="#6B5B45" stroke-width="2"/>
<circle cx="980" cy="326" r="6" fill="#F7F0D8" stroke="#6B5B45" stroke-width="2"/>
<circle cx="1058" cy="326" r="6" fill="#F7F0D8" stroke="#6B5B45" stroke-width="2"/>
<circle cx="1145" cy="326" r="6" fill="#F7F0D8" stroke="#6B5B45" stroke-width="2"/>
<path d="M 203 315 L 214 326 L 203 337 L 192 326 Z" fill="#C88A2D" stroke="#242018" stroke-width="2"/>
<text x="83.8" y="373" text-anchor="middle" fill="#242018" font-size="11" font-weight="700">The Shire</text>
<text x="137" y="357" text-anchor="middle" fill="#242018" font-size="11" font-weight="700">Bree</text>
<text x="225" y="357" text-anchor="middle" fill="#242018" font-size="11" font-weight="700">Weathertop</text>
<text x="322" y="357" text-anchor="middle" fill="#242018" font-size="11" font-weight="700">Rivendell</text>
<text x="507" y="357" text-anchor="middle" fill="#242018" font-size="11" font-weight="700">Lothlorien</text>
<text x="749" y="357" text-anchor="middle" fill="#242018" font-size="11" font-weight="700">Dead Marshes</text>
<text x="826" y="373" text-anchor="middle" fill="#242018" font-size="11" font-weight="700">Black Gate</text>
<text x="1058" y="373" text-anchor="middle" fill="#242018" font-size="11" font-weight="700">Shelob&apos;s Lair</text>
<text x="1113" y="357" text-anchor="middle" fill="#242018" font-size="11" font-weight="700">Mount Doom</text>
<svg x="185" y="264" width="36" height="45" viewBox="0 0 80 100" aria-hidden="true"><defs xmlns="http://www.w3.org/2000/svg">
    <linearGradient id="psrpg-middle-earth-character-cloak" x1="0" y1="0" x2="0" y2="1">
      <stop offset="0" stop-color="#3A7A55"/>
      <stop offset="1" stop-color="#1F4A35"/>
    </linearGradient>
    <linearGradient id="psrpg-middle-earth-character-waistcoat" x1="0" y1="0" x2="0" y2="1">
      <stop offset="0" stop-color="#B8893C"/>
      <stop offset="1" stop-color="#7A4F22"/>
    </linearGradient>
    <linearGradient id="psrpg-middle-earth-character-skin" x1="0" y1="0" x2="0" y2="1">
      <stop offset="0" stop-color="#E0A65A"/>
      <stop offset="1" stop-color="#B87333"/>
    </linearGradient>
  </defs><path d="M13 28 Q40 5 67 28 Q54 23 40 23 Q26 23 13 28 Z" fill="#6B5B45" stroke="#242018" stroke-width="3" stroke-linejoin="round" xmlns="http://www.w3.org/2000/svg"/><path d="M19 34 Q17 26 24 23 Q22 31 19 34 Z" fill="url(#psrpg-middle-earth-character-skin)" stroke="#242018" stroke-width="2" stroke-linejoin="round" xmlns="http://www.w3.org/2000/svg"/><path d="M61 34 Q63 26 56 23 Q58 31 61 34 Z" fill="url(#psrpg-middle-earth-character-skin)" stroke="#242018" stroke-width="2" stroke-linejoin="round" xmlns="http://www.w3.org/2000/svg"/><circle cx="40" cy="29" r="13" fill="url(#psrpg-middle-earth-character-skin)" stroke="#242018" stroke-width="3" xmlns="http://www.w3.org/2000/svg"/><path d="M27 24 Q30 13 40 15 Q51 15 54 24 Q47 20 40 22 Q33 20 27 24 Z" fill="#4A2B18" stroke="#242018" stroke-width="2" stroke-linejoin="round" xmlns="http://www.w3.org/2000/svg"/><circle cx="35" cy="30" r="1.8" fill="#242018" xmlns="http://www.w3.org/2000/svg"/><circle cx="45" cy="30" r="1.8" fill="#242018" xmlns="http://www.w3.org/2000/svg"/><path d="M35 38 Q40 42 45 38" fill="none" stroke="#242018" stroke-width="2" stroke-linecap="round" xmlns="http://www.w3.org/2000/svg"/><path d="M19 88 Q21 52 31 43 Q36 49 40 49 Q44 49 49 43 Q59 52 61 88 Z" fill="url(#psrpg-middle-earth-character-cloak)" stroke="#242018" stroke-width="3" stroke-linejoin="round" xmlns="http://www.w3.org/2000/svg"/><path d="M31 44 Q40 53 49 44 L53 84 Q46 91 40 90 Q34 91 27 84 Z" fill="url(#psrpg-middle-earth-character-waistcoat)" stroke="#242018" stroke-width="2" stroke-linejoin="round" xmlns="http://www.w3.org/2000/svg"/><path d="M40 51 L40 86" stroke="#242018" stroke-width="2" stroke-linecap="round" xmlns="http://www.w3.org/2000/svg"/><path d="M24 58 Q13 65 18 79" fill="none" stroke="#242018" stroke-width="4" stroke-linecap="round" xmlns="http://www.w3.org/2000/svg"/><path d="M56 58 Q65 60 63 74" fill="none" stroke="#242018" stroke-width="4" stroke-linecap="round" xmlns="http://www.w3.org/2000/svg"/><line x1="65" y1="35" x2="65" y2="96" stroke="#5B3A1D" stroke-width="4" stroke-linecap="round" xmlns="http://www.w3.org/2000/svg"/><circle cx="65" cy="34" r="3" fill="#8D612C" stroke="#242018" stroke-width="2" xmlns="http://www.w3.org/2000/svg"/><path d="M29 88 Q36 91 38 98 Q29 101 22 96 Q23 91 29 88 Z" fill="url(#psrpg-middle-earth-character-skin)" stroke="#242018" stroke-width="3" stroke-linejoin="round" xmlns="http://www.w3.org/2000/svg"/><path d="M51 88 Q44 91 42 98 Q51 101 58 96 Q57 91 51 88 Z" fill="url(#psrpg-middle-earth-character-skin)" stroke="#242018" stroke-width="3" stroke-linejoin="round" xmlns="http://www.w3.org/2000/svg"/></svg>
</g>
<g aria-label="Activity data incomplete"><circle cx="46" cy="395" r="6" fill="none" stroke="#C88A2D" stroke-width="2"/><text x="46" y="398" text-anchor="middle" fill="#C88A2D" font-size="10" font-weight="800">!</text><text x="58" y="399" fill="#6B5B45" font-size="11">Activity data incomplete</text></g>
</g>
</svg>
